<?xml version="1.0" encoding="iso-8859-1"?>
<!-- Generator: Adobe Illustrator 19.0.0, SVG Export Plug-In . SVG Version: 6.00 Build 0)  -->
<svg version="1.1" id="Layer_1" xmlns="http://www.w3.org/2000/svg" xmlns:xlink="http://www.w3.org/1999/xlink" x="0px" y="0px"
	 viewBox="0 0 511.999 511.999" style="enable-background:new 0 0 511.999 511.999;" xml:space="preserve">
<g>
	<g>
		<path d="M417.684,290.323c4.465,0,8.084-3.62,8.084-8.084v-111.8c0-22.056-17.627-40.485-39.292-41.078
			c-9.827-0.281-19.21,2.945-26.721,9.113c-4.498-17.17-19.809-30.173-37.953-30.671c-9.822-0.262-19.211,2.945-26.721,9.113
			c-4.498-17.17-19.809-30.173-37.953-30.671c-9.256-0.257-18.112,2.58-25.382,8.059V41.219c0-10.962-4.095-21.649-11.853-29.394
			c-7.931-7.918-18.518-12.096-29.699-11.811c-21.665,0.594-39.291,19.022-39.291,41.078v128.666
			c-7.27-5.479-16.153-8.306-25.382-8.059c-0.001,0-0.001,0-0.001,0c-21.665,0.594-39.291,19.022-39.291,41.078V342.23
			c0,34.91,16.045,68.316,43.116,90.181v59.974c0,10.833,8.782,19.613,19.613,19.613h214.078c10.833,0,19.613-8.782,19.613-19.613
			v-59.974c27.071-21.865,43.116-55.271,43.116-90.181v-19.602c0-4.465-3.62-8.084-8.084-8.084c-4.465,0-8.084,3.62-8.084,8.084
			v19.604h0.002c0,31.216-14.909,61.035-39.882,79.765c-2.036,1.526-3.234,3.924-3.234,6.467v63.924
			c0,1.902-1.542,3.445-3.445,3.445H148.961c-1.903,0-3.445-1.542-3.445-3.445v-63.924c0-2.544-1.198-4.941-3.234-6.467
			c-24.973-18.73-39.882-48.549-39.882-79.765V202.777c0-13.382,10.572-24.559,23.566-24.916c6.868-0.171,13.331,2.438,18.121,7.384
			c4.485,4.631,6.819,10.937,6.819,17.384v53.032c0,4.427,3.412,8.287,7.836,8.419c4.578,0.137,8.332-3.533,8.332-8.081V41.092
			c0-13.382,10.572-24.559,23.565-24.916c6.868-0.176,13.33,2.438,18.12,7.383c4.486,4.632,6.821,10.937,6.821,17.385v182.344
			c0,4.447,3.427,8.342,7.872,8.456c4.563,0.117,8.297-3.545,8.297-8.082V127.19c0-6.395,2.287-12.657,6.707-17.281
			c4.797-5.02,11.345-7.694,18.233-7.501c12.995,0.357,23.566,11.534,23.566,24.916v96c0,4.427,3.412,8.287,7.836,8.419
			c4.578,0.137,8.332-3.533,8.332-8.081v-74.876c0-6.865,2.649-13.553,7.651-18.256c4.694-4.414,10.824-6.75,17.288-6.563
			c12.995,0.357,23.566,11.534,23.566,24.916v74.442c0,4.427,3.412,8.287,7.836,8.419c4.578,0.137,8.332-3.533,8.332-8.081v-53.376
			c0-6.398,2.297-12.66,6.723-17.279c4.796-5.006,11.329-7.688,18.215-7.483c12.995,0.357,23.566,11.534,23.566,24.916v111.8
			C409.6,286.704,413.22,290.323,417.684,290.323z"/>
	</g>
</g>
<g>
</g>
<g>
</g>
<g>
</g>
<g>
</g>
<g>
</g>
<g>
</g>
<g>
</g>
<g>
</g>
<g>
</g>
<g>
</g>
<g>
</g>
<g>
</g>
<g>
</g>
<g>
</g>
<g>
</g>
</svg>
